<?xml version="1.0" encoding="UTF-8"?>
<svg width="142px" height="29px" viewBox="0 0 142 29" version="1.1" xmlns="http://www.w3.org/2000/svg" xmlns:xlink="http://www.w3.org/1999/xlink">
    <!-- Generator: Sketch 61.2 (89653) - https://sketch.com -->
    <title>logo-sm</title>
    <desc>Created with Sketch.</desc>
    <g id="logo-sm" stroke="none" stroke-width="1" fill="none" fill-rule="evenodd">
        <g id="logo">
            <polygon id="Rectangle-Copy-2" fill="#0076FF" fill-rule="evenodd" points="0 0 142 0 142 29 0 29"></polygon>
            <rect id="Rectangle" fill="#D4FB86" fill-rule="evenodd" x="1.97222222" y="0.983050847" width="53.25" height="27.0338983"></rect>
            <rect id="Rectangle-Copy" fill="#83FFDD" fill-rule="evenodd" x="96.1458333" y="0.983050847" width="43.8819444" height="27.0338983"></rect>
            <g id="Group" style="mix-blend-mode: multiply;" stroke-width="1" fill-rule="evenodd" transform="translate(2.465278, 14.254237)">
                <polygon id="Path" fill="#000000" fill-rule="nonzero" points="5.42361111 7.86440678 5.42361111 5.66668215 2.3589684 5.66668215 2.3589684 0 0 0 0 7.86440678"></polygon>
                <path d="M10.1076389,7.86440678 C12.5799452,7.86440678 13.8055556,6.56468252 13.8055556,3.94268927 C13.8055556,1.30674978 12.5799452,0 10.1076389,0 C7.63533258,0 6.40972222,1.30674978 6.40972222,3.94268927 C6.40972222,6.56468252 7.63533258,7.86440678 10.1076389,7.86440678 Z" id="Path" fill="#000000" fill-rule="nonzero"></path>
                <path d="M10.1076389,5.89830508 C9.28351613,5.89830508 8.875,5.25392072 8.875,3.9538089 C8.875,2.62496188 9.28351613,1.96610169 10.1076389,1.96610169 C10.9317616,1.96610169 11.3402778,2.62496188 11.3402778,3.9538089 C11.3402778,5.25392072 10.9317616,5.89830508 10.1076389,5.89830508 Z" id="Path" fill="#FFFFFF" fill-rule="nonzero"></path>
                <path d="M18.4895833,7.86440678 C20.9618896,7.86440678 22.1875,6.56468252 22.1875,3.94268927 C22.1875,1.30674978 20.9618896,0 18.4895833,0 C16.017277,0 14.7916667,1.30674978 14.7916667,3.94268927 C14.7916667,6.56468252 16.017277,7.86440678 18.4895833,7.86440678 Z" id="Path" fill="#000000" fill-rule="nonzero"></path>
                <path d="M18.4895833,5.89830508 C17.6654606,5.89830508 17.2569444,5.25392072 17.2569444,3.9538089 C17.2569444,2.62496188 17.6654606,1.96610169 18.4895833,1.96610169 C19.3137061,1.96610169 19.7222222,2.62496188 19.7222222,3.9538089 C19.7222222,5.25392072 19.3137061,5.89830508 18.4895833,5.89830508 Z" id="Path" fill="#FFFFFF" fill-rule="nonzero"></path>
                <path d="M25.5074132,7.86440678 L25.5074132,4.76173671 L25.8321161,4.76173671 C25.9741736,4.76173671 26.0554508,4.81560251 26.1263781,4.96642675 L27.3414773,7.55090776 C27.4431499,7.76723283 27.5911941,7.86440678 27.8189934,7.86440678 L30.0763889,7.86440678 L28.3079756,4.34158363 C28.1290845,3.98531515 27.9554699,3.83998517 27.6585698,3.79215231 C27.89195,3.73828651 28.0382692,3.60060554 28.2065059,3.24272115 L29.7306817,0 L27.6293466,0 C27.3996193,0 27.2515751,0.10040593 27.154976,0.321578891 L26.146672,2.62865103 C26.0798036,2.78162987 25.9944676,2.83334107 25.85241,2.83334107 L25.5074132,2.83334107 L25.5074132,0 L23.1736111,0 L23.1736111,7.86440678 L25.5074132,7.86440678 Z" id="Path" fill="#000000" fill-rule="nonzero"></path>
                <polygon id="Path" fill="#000000" fill-rule="nonzero" points="34.0208333 7.86440678 34.0208333 0 31.5555556 0 31.5555556 7.86440678"></polygon>
                <path d="M42.4027778,7.86440678 L42.4027778,0 L40.2315776,0 L40.2315776,3.19887431 C40.2315776,3.41433751 40.2315776,3.62980071 40.2623022,3.90990287 L37.4943292,0.253492441 C37.3592437,0.0750889382 37.2112539,0 36.9944411,0 L35.5,0 L35.5,7.86440678 L37.6712003,7.86440678 L37.6712003,4.66563998 C37.6712003,4.45017678 37.6712003,4.23471358 37.6404758,3.95461142 L40.4083462,7.61091417 C40.5434318,7.78942551 40.6914215,7.86440678 40.9083366,7.86440678 L42.4027778,7.86440678 Z" id="Path" fill="#000000" fill-rule="nonzero"></path>
                <path d="M47.4833937,7.86440678 C48.0845999,7.86440678 48.8181808,7.77687215 49.4410386,7.62025281 C49.6851012,7.55861143 49.7986111,7.40000026 49.7986111,7.15207216 L49.7986111,4.00658193 L47.5262681,4.00658193 L47.5262681,5.77814136 C47.5262681,5.81221182 47.5074034,5.83066223 47.4726751,5.83066223 L47.4619565,5.83066223 C46.5011413,5.83066223 45.9506341,5.14327741 45.9506341,3.94368261 C45.9506341,2.71892798 46.6103639,2.01707642 47.7616486,2.01707642 C48.1533062,2.01707642 48.5944837,2.07054091 48.9728503,2.16384151 L49.4181008,0.272563724 C48.8962122,0.0992761075 48.2285508,0 47.5852204,0 C44.9175754,0 43.3888889,1.43662042 43.3888889,3.94368245 C43.3888889,6.43617281 44.8803819,7.86440678 47.4833937,7.86440678 Z" id="Path" fill="#000000" fill-rule="nonzero"></path>
                <polygon id="Path" fill="#000000" fill-rule="nonzero" points="53.7430556 5.40677966 53.7430556 3.44067797 50.7847222 3.44067797 50.7847222 5.40677966"></polygon>
                <path d="M58.8236715,7.86440678 C59.4248777,7.86440678 60.1584586,7.77687215 60.7813164,7.62025281 C61.025379,7.55861143 61.1388889,7.40000026 61.1388889,7.15207216 L61.1388889,4.00658193 L58.8665459,4.00658193 L58.8665459,5.77814136 C58.8665459,5.81221182 58.8476812,5.83066223 58.8129529,5.83066223 L58.8022343,5.83066223 C57.8414191,5.83066223 57.2909118,5.14327741 57.2909118,3.94368261 C57.2909118,2.71892798 57.9506416,2.01707642 59.1019264,2.01707642 C59.4935839,2.01707642 59.9347615,2.07054091 60.3131281,2.16384151 L60.7583786,0.272563724 C60.23649,0.0992761075 59.5688285,0 58.9254982,0 C56.2578532,0 54.7291667,1.43662042 54.7291667,3.94368245 C54.7291667,6.43617281 56.2206597,7.86440678 58.8236715,7.86440678 Z" id="Path" fill="#000000" fill-rule="nonzero"></path>
                <polygon id="Path" fill="#000000" fill-rule="nonzero" points="67.5486111 7.86440678 67.5486111 5.66668215 64.4839684 5.66668215 64.4839684 0 62.125 0 62.125 7.86440678"></polygon>
                <path d="M70.7731214,7.86440678 C71.023994,7.86440678 71.179413,7.7505344 71.256695,7.50996972 L71.5649679,6.5500811 L73.8207901,6.5500811 L74.1302388,7.51018506 C74.2077346,7.75064207 74.3630468,7.86440678 74.6139194,7.86440678 L76.9166667,7.86440678 L74.0151181,0.339031357 C73.9258642,0.107408418 73.7701243,0 73.5235273,0 L71.9473163,0 C71.7009331,0 71.5451932,0.107192909 71.455405,0.338492667 L68.5347222,7.86440678 L70.7731214,7.86440678 Z" id="Path" fill="#000000" fill-rule="nonzero"></path>
                <path d="M73.4652778,4.91525424 L71.9861111,4.91525424 L72.3347679,3.87498879 C72.4677691,3.47812747 72.594174,3.04004565 72.7251559,2.45762712 C72.8537147,3.03731506 72.9627542,3.42052286 73.1155441,3.87498879 L73.4652778,4.91525424 Z" id="Path" fill="#FFFFFF" fill-rule="nonzero"></path>
                <path d="M80.6250472,7.86440678 C82.6556993,7.86440678 83.8194444,6.90440326 83.8194444,5.22893807 C83.8194444,4.25244967 83.2570095,3.54948305 82.0414309,3.12896301 C80.8199254,2.70644797 80.5145491,2.55314972 80.5145491,2.35197207 C80.5145491,2.14144954 80.7775344,2.04747569 81.3081258,2.04747569 C81.8379137,2.04747569 82.4071793,2.1483795 83.0258678,2.35197207 L83.4879504,0.398995262 C82.7010036,0.132298493 81.9086323,0 81.0971751,0 C79.2452283,0 78.1840455,0.826235215 78.1840455,2.26797307 C78.1840455,3.42264437 78.7671737,4.17884544 79.9436762,4.54970111 C81.1477028,4.92927154 81.4487597,5.09023465 81.4487597,5.35493658 C81.4487597,5.65680799 81.1524241,5.80643122 80.5547302,5.80643122 C79.8177085,5.80643122 79.0162965,5.64200313 78.3548151,5.35493658 L77.9027778,7.38141251 C78.7230749,7.70438862 79.625241,7.86440678 80.6250472,7.86440678 Z" id="Path" fill="#000000" fill-rule="nonzero"></path>
                <path d="M87.5278249,7.86440678 C89.5584771,7.86440678 90.7222222,6.90440326 90.7222222,5.22893807 C90.7222222,4.25244967 90.1597872,3.54948305 88.9442086,3.12896301 C87.7227032,2.70644797 87.4173269,2.55314972 87.4173269,2.35197207 C87.4173269,2.14144954 87.6803121,2.04747569 88.2109036,2.04747569 C88.7406914,2.04747569 89.3099571,2.1483795 89.9286455,2.35197207 L90.3907282,0.398995262 C89.6037814,0.132298493 88.8114101,0 87.9999528,0 C86.148006,0 85.0868232,0.826235215 85.0868232,2.26797307 C85.0868232,3.42264437 85.6699515,4.17884544 86.846454,4.54970111 C88.0504806,4.92927154 88.3515374,5.09023465 88.3515374,5.35493658 C88.3515374,5.65680799 88.0552018,5.80643122 87.457508,5.80643122 C86.7204863,5.80643122 85.9190743,5.64200313 85.2575929,5.35493658 L84.8055556,7.38141251 C85.6258527,7.70438862 86.5280188,7.86440678 87.5278249,7.86440678 Z" id="Path" fill="#000000" fill-rule="nonzero"></path>
                <polygon id="Path" fill="#000000" fill-rule="nonzero" points="94.6666667 5.40677966 94.6666667 3.44067797 91.7083333 3.44067797 91.7083333 5.40677966"></polygon>
                <polygon id="Path" fill="#000000" fill-rule="nonzero" points="101.569444 7.86440678 101.569444 5.81750638 98.0828373 5.81750638 98.0828373 4.80482935 101.02004 4.80482935 101.02004 2.90875319 98.0828373 2.90875319 98.0828373 2.00380775 101.442659 2.00380775 101.442659 0 95.6527778 0 95.6527778 7.86440678"></polygon>
                <path d="M109.951389,7.86440678 L109.951389,0 L107.780189,0 L107.780189,3.19887431 C107.780189,3.41433751 107.780189,3.62980071 107.810913,3.90990287 L105.04294,0.253492441 C104.907855,0.0750889382 104.759865,0 104.543052,0 L103.048611,0 L103.048611,7.86440678 L105.219811,7.86440678 L105.219811,4.66563998 C105.219811,4.45017678 105.219811,4.23471358 105.189087,3.95461142 L107.956957,7.61091417 C108.092043,7.78942551 108.240033,7.86440678 108.456948,7.86440678 L109.951389,7.86440678 Z" id="Path" fill="#000000" fill-rule="nonzero"></path>
                <path d="M115.032005,7.86440678 C115.633211,7.86440678 116.366792,7.77687215 116.98965,7.62025281 C117.233712,7.55861143 117.347222,7.40000026 117.347222,7.15207216 L117.347222,4.00658193 L115.074879,4.00658193 L115.074879,5.77814136 C115.074879,5.81221182 115.056015,5.83066223 115.021286,5.83066223 L115.010568,5.83066223 C114.049752,5.83066223 113.499245,5.14327741 113.499245,3.94368261 C113.499245,2.71892798 114.158975,2.01707642 115.31026,2.01707642 C115.701917,2.01707642 116.143095,2.07054091 116.521461,2.16384151 L116.966712,0.272563724 C116.444823,0.0992761075 115.777162,0 115.133832,0 C112.466187,0 110.9375,1.43662042 110.9375,3.94368245 C110.9375,6.43617281 112.428993,7.86440678 115.032005,7.86440678 Z" id="Path" fill="#000000" fill-rule="nonzero"></path>
                <polygon id="Path" fill="#000000" fill-rule="nonzero" points="120.798611 7.86440678 120.798611 0 118.333333 0 118.333333 7.86440678"></polygon>
                <path d="M129.180556,7.86440678 L129.180556,0 L127.009355,0 L127.009355,3.19887431 C127.009355,3.41433751 127.009355,3.62980071 127.04008,3.90990287 L124.272107,0.253492441 C124.137021,0.0750889382 123.989032,0 123.772219,0 L122.277778,0 L122.277778,7.86440678 L124.448978,7.86440678 L124.448978,4.66563998 C124.448978,4.45017678 124.448978,4.23471358 124.418254,3.95461142 L127.186124,7.61091417 C127.32121,7.78942551 127.469199,7.86440678 127.686114,7.86440678 L129.180556,7.86440678 Z" id="Path" fill="#000000" fill-rule="nonzero"></path>
                <polygon id="Path" fill="#000000" fill-rule="nonzero" points="136.576389 7.86440678 136.576389 5.81750638 133.089782 5.81750638 133.089782 4.80482935 136.026984 4.80482935 136.026984 2.90875319 133.089782 2.90875319 133.089782 2.00380775 136.449603 2.00380775 136.449603 0 130.659722 0 130.659722 7.86440678"></polygon>
            </g>
            <path d="M28.2755626,11.3065005 C28.3406164,11.3065005 28.3809976,11.2764191 28.4014989,11.2127174 L29.8256701,6.98398649 C29.9593276,6.58753194 30.0877489,6.18753832 30.2121764,5.75870204 C30.3343852,6.18134513 30.462274,6.58027696 30.5909615,6.96328334 L32.0166415,11.2125403 C32.0369652,11.2763305 32.0773464,11.3065005 32.1424889,11.3065005 L32.4016389,11.3065005 C32.4664264,11.3065005 32.5068964,11.2767729 32.5279301,11.2134251 L34.7090501,4.84644068 L34.208145,4.84644068 C34.1323526,4.84644068 34.0853151,4.88103427 34.0617075,4.95420278 L32.7119975,9.00235705 C32.5589038,9.46127463 32.41149,9.92771261 32.2678037,10.4196313 C32.12749,9.95345874 31.9854013,9.49259471 31.8210363,9.00111841 L30.460055,4.9409316 C30.4397313,4.87705294 30.3992613,4.84688308 30.3342075,4.84688308 L30.1039013,4.84688308 C30.0388475,4.84688308 29.9983776,4.87705294 29.9780539,4.94084317 L28.5829039,9.10065231 C28.4336263,9.54647569 28.2993475,9.98663671 28.16782,10.4264439 C28.0370913,9.97088824 27.9009488,9.53187744 27.7515825,9.08393062 L26.3720525,4.95411436 C26.3483563,4.8810344 26.3013187,4.84644068 26.2255263,4.84644068 L25.7185864,4.84644068 L27.8831101,11.2131598 C27.9039664,11.2765961 27.9443477,11.3065005 28.0093127,11.3065005 L28.2755626,11.3065005 Z M38.2105631,11.3935593 C39.918823,11.3935593 40.7656755,10.2991288 40.7656755,8.09142275 C40.7656755,5.86274823 39.918823,4.75796624 38.2105631,4.75796624 C36.5023031,4.75796624 35.6554506,5.86274823 35.6554506,8.09142275 C35.6554506,10.2991288 36.5023031,11.3935593 38.2105631,11.3935593 Z M38.2105631,10.8818224 C36.8793131,10.8818224 36.2193681,9.97318853 36.2193681,8.09142275 C36.2193681,6.18594584 36.8793131,5.26554484 38.2105631,5.26554484 C39.5418131,5.26554484 40.2017581,6.18594584 40.2017581,8.09142275 C40.2017581,9.97318853 39.5418131,10.8818224 38.2105631,10.8818224 Z M47.2435088,11.3050849 L47.2435088,4.84644081 L46.7019563,4.84644081 L46.7019563,9.50683912 C46.7019563,9.74005811 46.7019563,9.97327709 46.7149138,10.225872 L43.00969,4.93314592 C42.9655813,4.8697981 42.9203187,4.84644081 42.8419524,4.84644081 L42.4865085,4.84644081 L42.4865085,11.3050849 L43.0280611,11.3050849 L43.0280611,6.64468644 C43.0280611,6.41146745 43.0280611,6.17824846 43.0151923,5.92574208 L46.7204161,11.2183798 C46.7644362,11.2817276 46.8096987,11.3050849 46.888065,11.3050849 L47.2435088,11.3050849 Z M51.1756364,11.3050847 C52.9757527,11.3050847 53.8680451,10.2399393 53.8680451,8.09142275 C53.8680451,5.92193761 52.9757527,4.84644068 51.1756364,4.84644068 L49.2020139,4.84644068 L49.2020139,11.3050847 L51.1756364,11.3050847 Z M51.1756364,10.8143163 L49.7537726,10.8143163 L49.7537726,5.33313927 L51.1756364,5.33313927 C52.5987427,5.33313927 53.3042165,6.2310678 53.3042165,8.09142275 C53.3042165,9.92806645 52.5987427,10.8143163 51.1756364,10.8143163 Z M59.7163743,11.3050849 L59.7163743,10.8016646 L56.2384393,10.8016645 L56.2384393,8.26439057 L59.2685418,8.26439057 L59.2685418,7.79034378 L56.2384393,7.79034378 L56.2384393,5.34145604 L59.6235418,5.34145604 L59.6235418,4.84644081 L55.6866806,4.84644081 L55.6866806,11.3050849 L59.7163743,11.3050849 Z M61.933231,11.3050847 L61.933231,8.49716716 L62.9173797,8.49716716 C63.1046423,8.49716716 63.2308448,8.57617489 63.330156,8.73135924 L64.9605823,11.2183796 C64.9983898,11.2788078 65.0454273,11.3050847 65.1159835,11.3050847 L65.6509685,11.3050847 L63.8927423,8.66482646 C63.8180148,8.53998882 63.7222536,8.46301597 63.6310186,8.44107431 C64.8061574,8.36480927 65.4376136,7.73354312 65.4376136,6.66954791 C65.4376136,5.49460551 64.7238861,4.84644081 63.4324849,4.84644081 L61.3814722,4.84644081 L61.3814722,11.3050847 L61.933231,11.3050847 Z M63.3383213,8.03993062 L61.9252436,8.03993062 L61.9252436,5.31004754 L63.3520774,5.31004754 C64.3393325,5.31004754 64.897925,5.78568681 64.897925,6.66954778 C64.897925,7.56039831 64.3343625,8.03993062 63.3383213,8.03993062 Z M70.9356464,11.3050847 L70.9356464,10.7602583 L67.7159739,10.7602583 L67.7159739,4.84644068 L67.1561389,4.84644068 L67.1561389,11.3050847 L70.9356464,11.3050847 Z M72.2263081,11.3050846 C72.3006807,11.3050846 72.3478069,11.2727029 72.3754082,11.2025426 L73.0392582,9.57337177 L76.2676282,9.57337177 L76.9317444,11.2025426 C76.9593457,11.2727029 77.0065607,11.3050846 77.0809333,11.3050846 L77.5778446,11.3050846 L74.9337155,4.93394203 C74.9094868,4.87307148 74.8690168,4.84502505 74.8052944,4.84502505 L74.5179218,4.84502505 C74.4541994,4.84502505 74.4137294,4.87307148 74.3895007,4.93385347 L71.7413782,11.3050846 L72.2263081,11.3050846 Z M76.0716683,9.09268938 L73.2351295,9.09268938 L74.1051458,6.95762084 C74.291787,6.50020731 74.470352,6.03341549 74.653177,5.54468188 C74.8353807,6.0323537 75.0104845,6.48994422 75.2004982,6.95585137 L76.0716683,9.09268938 Z M83.7463838,11.3050849 L83.7463838,4.84644081 L83.2048313,4.84644081 L83.2048313,9.50683912 C83.2048313,9.74005811 83.2048313,9.97327709 83.2177888,10.225872 L79.512565,4.93314592 C79.4684563,4.8697981 79.4231937,4.84644081 79.3448274,4.84644081 L78.9893835,4.84644081 L78.9893835,11.3050849 L79.5309361,11.3050849 L79.5309361,6.64468644 C79.5309361,6.41146745 79.5309361,6.17824846 79.5180673,5.92574208 L83.2232911,11.2183798 C83.2673112,11.2817276 83.3125737,11.3050849 83.39094,11.3050849 L83.7463838,11.3050849 Z M87.6785114,11.3050847 C89.4786277,11.3050847 90.3709201,10.2399393 90.3709201,8.09142275 C90.3709201,5.92193761 89.4786277,4.84644068 87.6785114,4.84644068 L85.7048889,4.84644068 L85.7048889,11.3050847 L87.6785114,11.3050847 Z M87.6785114,10.8143163 L86.2566476,10.8143163 L86.2566476,5.33313927 L87.6785114,5.33313927 C89.1016177,5.33313927 89.8070915,6.2310678 89.8070915,8.09142275 C89.8070915,9.92806645 89.1016177,10.8143163 87.6785114,10.8143163 Z M95.9690631,11.3050847 L95.9690631,10.7602583 L92.7493906,10.7602583 L92.7493906,4.84644068 L92.1895556,4.84644068 L92.1895556,11.3050847 L95.9690631,11.3050847 Z M97.2597248,11.3050846 C97.3340974,11.3050846 97.3812236,11.2727029 97.4088248,11.2025426 L98.0726749,9.57337177 L101.301045,9.57337177 L101.965161,11.2025426 C101.992762,11.2727029 102.039977,11.3050846 102.11435,11.3050846 L102.611261,11.3050846 L99.9671322,4.93394203 C99.9429034,4.87307148 99.9024335,4.84502505 99.838711,4.84502505 L99.5513385,4.84502505 C99.4876161,4.84502505 99.4471461,4.87307148 99.4229174,4.93385347 L96.7747948,11.3050846 L97.2597248,11.3050846 Z M101.105085,9.09268938 L98.2685462,9.09268938 L99.1385624,6.95762084 C99.3252037,6.50020731 99.5037686,6.03341549 99.6865937,5.54468188 C99.8687974,6.0323537 100.043901,6.48994422 100.233915,6.95585137 L101.105085,9.09268938 Z M106.118276,11.3050847 C107.592059,11.3050847 108.322649,10.6942563 108.322649,9.52320683 C108.322649,8.67190445 107.88733,8.10823287 107.080327,7.92960267 L107.080326,7.92960267 C107.68569,7.74141721 108.011225,7.23534266 108.011225,6.49870339 C108.011225,5.4345312 107.384384,4.84644068 106.119963,4.84644068 L104.120514,4.84644068 L104.120514,11.3050847 L106.118276,11.3050847 Z M106.029793,7.72788061 L104.664285,7.72788061 L104.664285,5.30748157 L106.043549,5.30748157 C107.003646,5.30748157 107.479613,5.68429489 107.479613,6.51772537 C107.479613,7.35115585 106.99912,7.72788061 106.029793,7.72788061 Z M106.045856,10.8356385 L104.664285,10.8356385 L104.664285,8.19175275 L106.059613,8.19175275 C107.201026,8.19175275 107.766896,8.60563681 107.766896,9.51373985 C107.766896,10.4218429 107.1965,10.8356385 106.045856,10.8356385 Z M111.459399,11.3935595 L111.459311,11.3935595 C112.956701,11.3935595 113.814824,10.6977953 113.814824,9.4834817 C113.814824,8.50512982 113.248511,7.94048501 111.931461,7.70231147 C110.714432,7.47325079 110.235981,7.12510328 110.235981,6.42456165 C110.235981,5.67429722 110.805401,5.26793355 111.823541,5.26793355 C112.323558,5.26793355 112.831031,5.36861766 113.354922,5.57175535 L113.473847,5.07603231 C112.885612,4.86484354 112.326575,4.76008968 111.787153,4.76008968 C110.447738,4.76008968 109.680228,5.36030117 109.680228,6.4078401 C109.680228,7.35469505 110.234117,7.90022932 111.504573,8.1256625 C112.756924,8.34941465 113.250996,8.7288821 113.250996,9.50860858 C113.250996,10.3972472 112.604895,10.8836804 111.451145,10.8836804 C110.79546,10.8836804 110.191428,10.7814923 109.67224,10.5842825 L109.562191,11.0878798 C110.161164,11.2922561 110.789958,11.3935595 111.459399,11.3935595 Z M115.523587,11.676678 C115.593345,11.676678 115.637187,11.6458003 115.661771,11.5795328 L118.288238,4.63410156 L117.832596,4.63410156 C117.762927,4.63410156 117.718996,4.66497924 117.694412,4.73133517 L115.067945,11.676678 L115.523587,11.676678 Z" id="WONDERLANDLABS/" fill="#000000" fill-rule="nonzero"></path>
        </g>
    </g>
</svg>