<?xml version="1.0" encoding="UTF-8"?>
<svg width="288px" height="59px" viewBox="0 0 288 59" version="1.1" xmlns="http://www.w3.org/2000/svg" xmlns:xlink="http://www.w3.org/1999/xlink">
    <!-- Generator: Sketch 61.2 (89653) - https://sketch.com -->
    <title>logo</title>
    <desc>Created with Sketch.</desc>
    <g id="logo" stroke="none" stroke-width="1" fill="none" fill-rule="evenodd">
        <g transform="translate(0.000000, 0.000000)">
            <polygon id="Rectangle-Copy-2" fill="#0076FF" fill-rule="evenodd" points="0 0 288 0 288 59 0 59"></polygon>
            <rect id="Rectangle" fill="#D4FB86" fill-rule="evenodd" x="4" y="2" width="108" height="55"></rect>
            <rect id="Rectangle-Copy" fill="#83FFDD" fill-rule="evenodd" x="195" y="2" width="89" height="55"></rect>
            <g id="Group" style="mix-blend-mode: multiply;" stroke-width="1" fill-rule="evenodd" transform="translate(5.000000, 29.000000)">
                <polygon id="Path" fill="#000000" fill-rule="nonzero" points="11 16 11 11.5287671 4.78438662 11.5287671 4.78438662 0 0 0 0 16"></polygon>
                <path d="M20.5,16 C25.5142551,16 28,13.3557334 28,8.02133333 C28,2.6585599 25.5142551,0 20.5,0 C15.4857449,0 13,2.6585599 13,8.02133333 C13,13.3557334 15.4857449,16 20.5,16 Z" id="Path" fill="#000000" fill-rule="nonzero"></path>
                <path d="M20.5,12 C18.8285398,12 18,10.6890111 18,8.04395604 C18,5.34043968 18.8285398,4 20.5,4 C22.1714602,4 23,5.34043968 23,8.04395604 C23,10.6890111 22.1714602,12 20.5,12 Z" id="Path" fill="#FFFFFF" fill-rule="nonzero"></path>
                <path d="M37.5,16 C42.5142551,16 45,13.3557334 45,8.02133333 C45,2.6585599 42.5142551,0 37.5,0 C32.4857449,0 30,2.6585599 30,8.02133333 C30,13.3557334 32.4857449,16 37.5,16 Z" id="Path" fill="#000000" fill-rule="nonzero"></path>
                <path d="M37.5,12 C35.8285398,12 35,10.6890111 35,8.04395604 C35,5.34043968 35.8285398,4 37.5,4 C39.1714602,4 40,5.34043968 40,8.04395604 C40,10.6890111 39.1714602,12 37.5,12 Z" id="Path" fill="#FFFFFF" fill-rule="nonzero"></path>
                <path d="M51.7333451,16 L51.7333451,9.68767123 L52.3918975,9.68767123 C52.6800141,9.68767123 52.8448579,9.79726027 52.9887105,10.1041096 L55.453137,15.3621916 C55.6593463,15.8023013 55.9596049,16 56.4216205,16 L61,16 L57.4133589,8.83287705 C57.0505376,8.10805497 56.6984179,7.81238362 56.0962542,7.71506849 C56.5695887,7.60547945 56.8663488,7.32536989 57.2075613,6.59726027 L60.2988474,0 L56.0369847,0 C55.5710589,0 55.2708003,0.204274133 55.0748808,0.654246709 L53.0298701,5.34794521 C52.8942495,5.65917802 52.7211736,5.76438356 52.433057,5.76438356 L51.7333451,5.76438356 L51.7333451,0 L47,0 L47,16 L51.7333451,16 Z" id="Path" fill="#000000" fill-rule="nonzero"></path>
                <polygon id="Path" fill="#000000" fill-rule="nonzero" points="69 16 69 0 64 0 64 16"></polygon>
                <path d="M86,16 L86,0 L81.5964392,0 L81.5964392,6.50805463 C81.5964392,6.9464108 81.5964392,7.38476696 81.6587537,7.95462998 L76.0448367,0.515726001 C75.7708604,0.15276715 75.4707121,0 75.0309792,0 L72,0 L72,16 L76.4035611,16 L76.4035611,9.49216409 C76.4035611,9.05380792 76.4035611,8.61545176 76.3412466,8.04558875 L81.9549557,15.4842737 C82.228932,15.8474519 82.5290803,16 82.9690208,16 L86,16 Z" id="Path" fill="#000000" fill-rule="nonzero"></path>
                <path d="M96.3043478,16 C97.5236956,16 99.0115217,15.8219123 100.274783,15.503273 C100.769783,15.3778646 101,15.0551729 101,14.5507675 L101,8.15132186 L96.3913043,8.15132186 L96.3913043,11.755529 C96.3913043,11.8248447 96.3530436,11.8623818 96.2826087,11.8623818 L96.2608696,11.8623818 C94.3121739,11.8623818 93.1956522,10.4639092 93.1956522,8.02335427 C93.1956522,5.5316121 94.5336957,4.10370721 96.8686958,4.10370721 C97.6630435,4.10370721 98.5578262,4.21247979 99.3252175,4.40229824 L100.228261,0.554526196 C99.1697826,0.201975529 97.8156523,0 96.5108696,0 C91.1004347,0 88,2.92277947 88,8.02335395 C88,13.0942826 91.0249999,16 96.3043478,16 Z" id="Path" fill="#000000" fill-rule="nonzero"></path>
                <polygon id="Path" fill="#000000" fill-rule="nonzero" points="109 11 109 7 103 7 103 11"></polygon>
                <path d="M119.304348,16 C120.523696,16 122.011522,15.8219123 123.274783,15.503273 C123.769783,15.3778646 124,15.0551729 124,14.5507675 L124,8.15132186 L119.391304,8.15132186 L119.391304,11.755529 C119.391304,11.8248447 119.353044,11.8623818 119.282609,11.8623818 L119.26087,11.8623818 C117.312174,11.8623818 116.195652,10.4639092 116.195652,8.02335427 C116.195652,5.5316121 117.533696,4.10370721 119.868696,4.10370721 C120.663043,4.10370721 121.557826,4.21247979 122.325218,4.40229824 L123.228261,0.554526196 C122.169783,0.201975529 120.815652,0 119.51087,0 C114.100435,0 111,2.92277947 111,8.02335395 C111,13.0942826 114.025,16 119.304348,16 Z" id="Path" fill="#000000" fill-rule="nonzero"></path>
                <polygon id="Path" fill="#000000" fill-rule="nonzero" points="137 16 137 11.5287671 130.784387 11.5287671 130.784387 0 126 0 126 16"></polygon>
                <path d="M143.539852,16 C144.048664,16 144.36388,15.7683286 144.520621,15.2789039 L145.14585,13.3260271 L149.721039,13.3260271 L150.348653,15.279342 C150.505828,15.7685477 150.820827,16 151.329639,16 L156,16 L150.115169,0.689753451 C149.934147,0.218520575 149.61828,0 149.11814,0 L145.921318,0 C145.421611,0 145.105744,0.218082125 144.923638,0.688657494 L139,16 L143.539852,16 Z" id="Path" fill="#000000" fill-rule="nonzero"></path>
                <path d="M149,10 L146,10 L146.707135,7.88359788 C146.976884,7.07619036 147.233254,6.18492046 147.498908,5 C147.759647,6.17936513 147.980797,6.95899479 148.290681,7.88359788 L149,10 Z" id="Path" fill="#FFFFFF" fill-rule="nonzero"></path>
                <path d="M163.521222,16 C167.639728,16 170,14.0468894 170,10.6381844 C170,8.65153553 168.859287,7.22136206 166.393888,6.36582129 C163.916468,5.50622173 163.297114,5.19433909 163.297114,4.78504663 C163.297114,4.35674217 163.830492,4.16555399 164.906621,4.16555399 C165.981121,4.16555399 167.135688,4.37084105 168.390492,4.78504663 L169.327674,0.811748982 C167.731613,0.269159003 166.12455,0 164.478778,0 C160.722716,0 158.570458,1.6809613 158.570458,4.61415211 C158.570458,6.96331097 159.753141,8.501789 162.139287,9.25628847 C164.581256,10.028518 165.191851,10.3559946 165.191851,10.8945261 C165.191851,11.5086783 164.590832,11.8130842 163.378608,11.8130842 C161.883803,11.8130842 160.258404,11.4785581 158.916808,10.8945261 L158,15.0173565 C159.663701,15.6744458 161.493447,16 163.521222,16 Z" id="Path" fill="#000000" fill-rule="nonzero"></path>
                <path d="M177.521222,16 C181.639728,16 184,14.0468894 184,10.6381844 C184,8.65153553 182.859287,7.22136206 180.393888,6.36582129 C177.916468,5.50622173 177.297114,5.19433909 177.297114,4.78504663 C177.297114,4.35674217 177.830492,4.16555399 178.906621,4.16555399 C179.981121,4.16555399 181.135688,4.37084105 182.390492,4.78504663 L183.327674,0.811748982 C181.731613,0.269159003 180.12455,0 178.478778,0 C174.722716,0 172.570458,1.6809613 172.570458,4.61415211 C172.570458,6.96331097 173.753141,8.501789 176.139287,9.25628847 C178.581256,10.028518 179.191851,10.3559946 179.191851,10.8945261 C179.191851,11.5086783 178.590832,11.8130842 177.378608,11.8130842 C175.883803,11.8130842 174.258404,11.4785581 172.916808,10.8945261 L172,15.0173565 C173.663701,15.6744458 175.493447,16 177.521222,16 Z" id="Path" fill="#000000" fill-rule="nonzero"></path>
                <polygon id="Path" fill="#000000" fill-rule="nonzero" points="192 11 192 7 186 7 186 11"></polygon>
                <polygon id="Path" fill="#000000" fill-rule="nonzero" points="206 16 206 11.8356164 198.928571 11.8356164 198.928571 9.77534247 204.885714 9.77534247 204.885714 5.91780822 198.928571 5.91780822 198.928571 4.07671233 205.742857 4.07671233 205.742857 0 194 0 194 16"></polygon>
                <path d="M223,16 L223,0 L218.596439,0 L218.596439,6.50805463 C218.596439,6.9464108 218.596439,7.38476696 218.658754,7.95462998 L213.044837,0.515726001 C212.77086,0.15276715 212.470712,0 212.030979,0 L209,0 L209,16 L213.403561,16 L213.403561,9.49216409 C213.403561,9.05380792 213.403561,8.61545176 213.341247,8.04558875 L218.954956,15.4842737 C219.228932,15.8474519 219.52908,16 219.969021,16 L223,16 Z" id="Path" fill="#000000" fill-rule="nonzero"></path>
                <path d="M233.304348,16 C234.523696,16 236.011522,15.8219123 237.274783,15.503273 C237.769783,15.3778646 238,15.0551729 238,14.5507675 L238,8.15132186 L233.391304,8.15132186 L233.391304,11.755529 C233.391304,11.8248447 233.353044,11.8623818 233.282609,11.8623818 L233.26087,11.8623818 C231.312174,11.8623818 230.195652,10.4639092 230.195652,8.02335427 C230.195652,5.5316121 231.533696,4.10370721 233.868696,4.10370721 C234.663043,4.10370721 235.557826,4.21247979 236.325218,4.40229824 L237.228261,0.554526196 C236.169783,0.201975529 234.815652,0 233.51087,0 C228.100435,0 225,2.92277947 225,8.02335395 C225,13.0942826 228.025,16 233.304348,16 Z" id="Path" fill="#000000" fill-rule="nonzero"></path>
                <polygon id="Path" fill="#000000" fill-rule="nonzero" points="245 16 245 0 240 0 240 16"></polygon>
                <path d="M262,16 L262,0 L257.596439,0 L257.596439,6.50805463 C257.596439,6.9464108 257.596439,7.38476696 257.658754,7.95462998 L252.044837,0.515726001 C251.77086,0.15276715 251.470712,0 251.030979,0 L248,0 L248,16 L252.403561,16 L252.403561,9.49216409 C252.403561,9.05380792 252.403561,8.61545176 252.341247,8.04558875 L257.954956,15.4842737 C258.228932,15.8474519 258.52908,16 258.969021,16 L262,16 Z" id="Path" fill="#000000" fill-rule="nonzero"></path>
                <polygon id="Path" fill="#000000" fill-rule="nonzero" points="277 16 277 11.8356164 269.928571 11.8356164 269.928571 9.77534247 275.885714 9.77534247 275.885714 5.91780822 269.928571 5.91780822 269.928571 4.07671233 276.742857 4.07671233 276.742857 0 265 0 265 16"></polygon>
            </g>
            <path d="M57.3476199,23.0028803 C57.47956,23.0028803 57.56146,22.9416802 57.60304,22.8120802 L60.4915,14.2088001 C60.76258,13.4022202 61.02304,12.58844 61.2754001,11.71598 C61.5232601,12.5758401 61.7826402,13.38746 62.0436402,14.1666799 L64.9351602,22.8117199 C64.9763801,22.9415 65.0582801,23.0028803 65.1904001,23.0028803 L65.716,23.0028803 C65.8474001,23.0028803 65.92948,22.9424001 65.9721399,22.81352 L70.3958198,9.86 L69.3798998,9.86 C69.2261799,9.86 69.1307798,9.93038007 69.0828998,10.0792401 L66.3454597,18.3151402 C66.0349597,19.2488001 65.7359797,20.1977601 65.4445597,21.1985602 C65.1599797,20.2501402 64.8717998,19.3125203 64.5384398,18.3126202 L61.7781396,10.0522401 C61.7369198,9.92228012 61.6548398,9.86090005 61.5228998,9.86090005 L61.0557998,9.86090005 C60.9238598,9.86090005 60.8417798,9.92228012 60.80056,10.0520602 L57.97096,18.5151202 C57.6681999,19.4221402 57.3958598,20.3176402 57.1290997,21.2124203 C56.8639597,20.2856002 56.5878398,19.3924403 56.2848998,18.4811002 L53.4869797,10.0790602 C53.4389198,9.93038034 53.3435197,9.86 53.1897998,9.86 L52.1616399,9.86 L56.5516599,22.8129803 C56.59396,22.9420403 56.6758601,23.0028803 56.8076202,23.0028803 L57.3476199,23.0028803 Z M77.49748,23.1800003 C80.9621199,23.1800003 82.6796799,20.9534001 82.6796799,16.4618601 C82.6796799,11.9276602 80.9621199,9.68000027 77.49748,9.68000027 C74.0328401,9.68000027 72.3152801,11.9276602 72.3152801,16.4618601 C72.3152801,20.9534001 74.0328401,23.1800003 77.49748,23.1800003 Z M77.49748,22.1388801 C74.79748,22.1388801 73.459,20.2902801 73.459,16.4618601 C73.459,12.5852002 74.79748,10.7126602 77.49748,10.7126602 C80.19748,10.7126602 81.53596,12.5852002 81.53596,16.4618601 C81.53596,20.2902801 80.19748,22.1388801 77.49748,22.1388801 Z M95.8178206,23.0000003 L95.8178206,9.86000027 L94.7194606,9.86000027 L94.7194606,19.3415003 C94.7194606,19.8159803 94.7194606,20.2904603 94.7457407,20.8043604 L87.2309206,10.0364003 C87.1414606,9.90752026 87.0496605,9.86000027 86.8907204,9.86000027 L86.1698201,9.86000027 L86.1698201,23.0000003 L87.2681802,23.0000003 L87.2681802,13.5185 C87.2681802,13.04402 87.2681802,12.56954 87.2420802,12.0558201 L94.7569003,22.8236002 C94.8461805,22.9524803 94.9379806,23.0000003 95.0969206,23.0000003 L95.8178206,23.0000003 Z M103.79284,23 C107.44378,23 109.2535,20.83298 109.2535,16.4618601 C109.2535,12.04808 107.44378,9.86 103.79284,9.86 L99.79,9.86 L99.79,23 L103.79284,23 Z M103.79284,22.00154 L100.90906,22.00154 L100.90906,10.8501799 L103.79284,10.8501799 C106.67914,10.8501799 108.10996,12.677 108.10996,16.4618601 C108.10996,20.19848 106.67914,22.00154 103.79284,22.00154 Z M121.1149,23.0000003 L121.1149,21.9758004 L114.06106,21.9758001 L114.06106,16.8137601 L120.20662,16.8137601 L120.20662,15.8493201 L114.06106,15.8493201 L114.06106,10.8671002 L120.92662,10.8671002 L120.92662,9.86000027 L112.942,9.86000027 L112.942,23.0000003 L121.1149,23.0000003 Z M125.61106,23 L125.61106,17.2873401 L127.60708,17.2873401 C127.98688,17.2873401 128.24284,17.44808 128.44426,17.7637998 L131.75104,22.8235999 C131.82772,22.94654 131.92312,23 132.06622,23 L133.15126,23 L129.58528,17.62844 C129.43372,17.37446 129.2395,17.2178601 129.05446,17.1732202 C131.43784,17.0180602 132.71854,15.7337601 132.71854,13.5690802 C132.71854,11.1786802 131.27098,9.86000027 128.6518,9.86000027 L124.492,9.86000027 L124.492,23 L125.61106,23 Z M128.460821,16.3571002 L125.59486,16.3571002 L125.59486,10.8032002 L128.48872,10.8032002 C130.491041,10.8032002 131.623961,11.7708801 131.623961,13.56908 C131.623961,15.3815 130.480961,16.3571002 128.460821,16.3571002 Z M143.86948,23 L143.86948,21.89156 L137.33944,21.89156 L137.33944,9.86 L136.204,9.86 L136.204,23 L143.86948,23 Z M146.48716,22.9999997 C146.638,22.9999997 146.73358,22.9341197 146.78956,22.7913798 L148.13596,19.4768598 L154.68364,19.4768598 L156.03058,22.7913798 C156.08656,22.9341197 156.18232,22.9999997 156.33316,22.9999997 L157.340981,22.9999997 L151.97824,10.03802 C151.9291,9.9141799 151.84702,9.85711993 151.71778,9.85711993 L151.13494,9.85711993 C151.0057,9.85711993 150.92362,9.9141799 150.87448,10.0378398 L145.50364,22.9999997 L146.48716,22.9999997 Z M154.2862,18.4989198 L148.53322,18.4989198 L150.29776,14.1551596 C150.6763,13.2245597 151.03846,12.2748798 151.40926,11.2805597 C151.7788,12.2727196 152.13394,13.2036796 152.51932,14.1515597 L154.2862,18.4989198 Z M169.851821,23.0000003 L169.851821,9.86000027 L168.753461,9.86000027 L168.753461,19.3415003 C168.753461,19.8159803 168.753461,20.2904603 168.779741,20.8043604 L161.264921,10.0364003 C161.175461,9.90752026 161.08366,9.86000027 160.92472,9.86000027 L160.20382,9.86000027 L160.20382,23.0000003 L161.30218,23.0000003 L161.30218,13.5185 C161.30218,13.04402 161.30218,12.56954 161.27608,12.0558201 L168.7909,22.8236002 C168.88018,22.9524803 168.971981,23.0000003 169.130921,23.0000003 L169.851821,23.0000003 Z M177.82684,23 C181.47778,23 183.2875,20.83298 183.2875,16.4618601 C183.2875,12.04808 181.47778,9.86 177.82684,9.86 L173.824,9.86 L173.824,23 L177.82684,23 Z M177.82684,22.00154 L174.94306,22.00154 L174.94306,10.8501799 L177.82684,10.8501799 C180.71314,10.8501799 182.14396,12.677 182.14396,16.4618601 C182.14396,20.19848 180.71314,22.00154 177.82684,22.00154 Z M194.64148,23 L194.64148,21.89156 L188.11144,21.89156 L188.11144,9.86 L186.976,9.86 L186.976,23 L194.64148,23 Z M197.25916,22.9999997 C197.41,22.9999997 197.50558,22.9341197 197.56156,22.7913798 L198.90796,19.4768598 L205.45564,19.4768598 L206.80258,22.7913798 C206.85856,22.9341197 206.95432,22.9999997 207.10516,22.9999997 L208.112981,22.9999997 L202.75024,10.03802 C202.7011,9.9141799 202.61902,9.85711993 202.48978,9.85711993 L201.90694,9.85711993 C201.7777,9.85711993 201.69562,9.9141799 201.64648,10.0378398 L196.27564,22.9999997 L197.25916,22.9999997 Z M205.0582,18.4989198 L199.30522,18.4989198 L201.06976,14.1551596 C201.4483,13.2245597 201.81046,12.2748798 202.18126,11.2805597 C202.5508,12.2727196 202.90594,13.2036796 203.29132,14.1515597 L205.0582,18.4989198 Z M215.2258,23 C218.21488,23 219.69664,21.7572801 219.69664,19.3748001 C219.69664,17.6428401 218.81374,16.49606 217.177,16.1326399 L217.177,16.1326399 C218.40478,15.7497798 219.06502,14.7201799 219.06502,13.2215 C219.06502,11.05646 217.79368,9.86 215.22922,9.86 L211.174,9.86 L211.174,23 L215.2258,23 Z M215.04634,15.7222399 L212.27686,15.7222399 L212.27686,10.7979797 L215.07424,10.7979797 C217.02148,10.7979797 217.98682,11.5645999 217.98682,13.2601999 C217.98682,14.9557998 217.0123,15.7222399 215.04634,15.7222399 Z M215.07892,22.0449198 L212.27686,22.0449198 L212.27686,16.6659797 L215.10682,16.6659797 C217.4218,16.6659797 218.56948,17.5080197 218.56948,19.3555397 C218.56948,21.2030597 217.41262,22.0449198 215.07892,22.0449198 Z M226.0585,23.1800003 L226.05832,23.1800003 C229.09528,23.1800003 230.8357,21.76448 230.8357,19.29398 C230.8357,17.30354 229.68712,16.1547798 227.01592,15.6702199 C224.54758,15.2041999 223.5772,14.4958998 223.5772,13.0706599 C223.5772,11.5442599 224.73208,10.71752 226.79704,10.71752 C227.81116,10.71752 228.8404,10.9223601 229.90294,11.3356402 L230.14414,10.3271002 C228.9511,9.89744031 227.81728,9.68432037 226.72324,9.68432037 C224.00668,9.68432037 222.45004,10.9054403 222.45004,13.0366402 C222.45004,14.9630003 223.57342,16.0728803 226.15012,16.5315203 C228.6901,16.9867401 229.69216,17.7587601 229.69216,19.3451002 C229.69216,21.1530203 228.38176,22.1426602 226.04176,22.1426602 C224.71192,22.1426602 223.48684,21.9347601 222.43384,21.5335403 L222.21064,22.5581002 C223.42546,22.9739003 224.70076,23.1800003 226.0585,23.1800003 Z M234.30136,23.756 C234.44284,23.756 234.53176,23.6931799 234.58162,23.5583598 L239.90854,9.42799973 L238.98442,9.42799973 C238.84312,9.42799973 238.75402,9.49081982 238.70416,9.62581982 L233.37724,23.756 L234.30136,23.756 Z" id="WONDERLANDLABS/" fill="#000000" fill-rule="nonzero"></path>
        </g>
    </g>
</svg>